<?xml version="1.0" standalone="no"?><!-- Generator: Gravit.io --><svg xmlns="http://www.w3.org/2000/svg" xmlns:xlink="http://www.w3.org/1999/xlink" style="isolation:isolate" viewBox="0 0 300 300" width="300" height="300"><defs><clipPath id="_clipPath_TYXVcGfPred9Fqk6c9ST5eo5L134hILJ"><rect x="0" y="0" width="300" height="300"/></clipPath></defs><g clip-path="url(#_clipPath_TYXVcGfPred9Fqk6c9ST5eo5L134hILJ)"><path d=" M 150 0 C 232.788 0 300 67.212 300 150 C 300 232.788 232.788 300 150 300 C 67.212 300 0 232.788 0 150 C 0 67.212 67.212 0 150 0 Z  M 251.588 242.625 C 248.063 237.613 241.938 234.45 231.288 232 C 183.188 220.675 180.075 213.237 176.888 206.262 C 173.65 199.2 174.513 190.887 179.45 181.55 C 201.025 140.837 205.575 106.25 192.288 84.175 C 183.863 70.187 168.85 62.5 150 62.5 C 130.988 62.5 115.85 70.325 107.388 84.537 C 94.063 106.9 98.725 141.337 120.5 181.5 C 125.525 190.775 126.45 199.075 123.25 206.175 C 119.938 213.5 115.613 221.05 68.688 232 C 58.038 234.45 51.913 237.612 48.4 242.6 C 73.55 270.187 109.775 287.5 150 287.5 C 190.225 287.5 226.438 270.187 251.588 242.625 Z  M 259.713 232.85 C 277.15 209.8 287.5 181.1 287.5 150 C 287.5 74.113 225.888 12.5 150 12.5 C 74.113 12.5 12.5 74.113 12.5 150 C 12.5 181.088 22.838 209.788 40.275 232.825 C 45.387 227.175 53.387 222.7 65.888 219.813 C 91.2 214.038 108.088 209.363 111.863 201.038 C 113.388 197.638 112.625 193.188 109.512 187.45 C 85.55 143.263 80.987 104.438 96.637 78.138 C 107.3 60.25 126.738 50 150 50 C 173.063 50 192.388 60.1 203 77.725 C 218.638 103.713 214.2 142.663 190.5 187.4 C 187.438 193.188 186.7 197.663 188.263 201.075 C 192.075 209.425 208.813 214.05 234.1 219.813 C 246.6 222.688 254.6 227.188 259.713 232.85 Z " fill-rule="evenodd" fill="rgb(0,0,0)"/></g></svg>