<?xml version="1.0" standalone="no"?><!-- Generator: Gravit.io --><svg xmlns="http://www.w3.org/2000/svg" xmlns:xlink="http://www.w3.org/1999/xlink" style="isolation:isolate" viewBox="3 0 300 300" width="300" height="300"><defs><clipPath id="_clipPath_0zLvMfeTdV5d9qaDvlDi3cVOWePznQuh"><rect x="3" y="0" width="300" height="300"/></clipPath></defs><g clip-path="url(#_clipPath_0zLvMfeTdV5d9qaDvlDi3cVOWePznQuh)"><path d=" M 64.083 113.35 L 3 92.6 L 3 267.6 L 64.083 300 L 303 273.062 L 303 87.5 L 64.083 113.35 Z  M 36.333 131.362 L 53 137.025 L 53 263.5 L 36.333 254.662 L 36.333 131.362 Z  M 269.667 251.55 L 86.333 272.213 L 86.333 136.2 L 269.667 116.363 L 269.667 251.55 Z  M 236.333 53.638 L 236.317 75.5 C 236.317 78.575 233.317 81.188 229.267 81.65 C 224.217 82.213 219.667 79.275 219.667 75.463 L 219.667 53.638 C 219.683 45 215.817 37.338 208.783 32.063 C 202.65 27.437 194.667 25 185.717 25 C 159.933 25 136.383 44.475 136.333 65.85 L 136.333 86.863 C 136.333 89.95 133.317 92.575 129.25 93.038 C 124.217 93.613 119.667 90.675 119.667 86.863 L 119.683 65.825 C 119.75 37.563 150.783 12.5 185.717 12.5 C 214.333 12.5 236.367 29.838 236.333 53.638 Z  M 69.683 81.25 L 69.683 53.313 C 69.75 25.063 100.783 0 135.717 0 C 143.917 0 151.45 1.563 158.217 4.15 C 151.167 6.275 144.517 9.15 138.417 12.688 L 135.717 12.5 C 109.933 12.5 86.367 31.975 86.333 53.35 L 86.333 81.25 C 86.333 84.35 83.3 86.975 79.217 87.425 C 74.217 87.988 69.683 85.088 69.683 81.25 Z " fill="rgb(0,0,0)"/></g></svg>