<?xml version="1.0" standalone="no"?><!-- Generator: Gravit.io --><svg xmlns="http://www.w3.org/2000/svg" xmlns:xlink="http://www.w3.org/1999/xlink" style="isolation:isolate" viewBox="0 0 300 300" width="300" height="300"><defs><clipPath id="_clipPath_vANuHxm2KwTOcVUtTGj5juJPDq1MIKwW"><rect x="0" y="0" width="300" height="300"/></clipPath></defs><g clip-path="url(#_clipPath_vANuHxm2KwTOcVUtTGj5juJPDq1MIKwW)"><path d=" M 75 25 C 81.9 25 87.5 30.612 87.5 37.5 C 87.5 44.388 81.9 50 75 50 C 68.1 50 62.5 44.388 62.5 37.5 C 62.5 30.612 68.1 25 75 25 Z  M 262.5 137.5 C 269.4 137.5 275 143.1 275 150 C 275 156.9 269.4 162.5 262.5 162.5 C 255.6 162.5 250 156.888 250 150 C 250 143.1 255.6 137.5 262.5 137.5 Z  M 75 250 C 81.9 250 87.5 255.613 87.5 262.5 C 87.5 269.388 81.9 275 75 275 C 68.1 275 62.5 269.388 62.5 262.5 C 62.5 255.613 68.1 250 75 250 Z  M 75 0 C 54.3 0 37.5 16.788 37.5 37.5 C 37.5 58.213 54.3 75 75 75 C 95.7 75 112.5 58.213 112.5 37.5 C 112.5 16.788 95.7 0 75 0 Z  M 262.5 112.5 C 241.8 112.5 225 129.288 225 150 C 225 170.713 241.8 187.5 262.5 187.5 C 283.2 187.5 300 170.713 300 150 C 300 129.288 283.2 112.5 262.5 112.5 Z  M 75 225 C 54.287 225 37.5 241.788 37.5 262.5 C 37.5 283.213 54.287 300 75 300 C 95.7 300 112.5 283.213 112.5 262.5 C 112.5 241.788 95.7 225 75 225 Z  M 132.35 12.763 L 137.5 12.5 C 191.013 12.5 237.263 43.125 260 87.763 C 251.038 88.125 242.625 90.388 235.025 94.15 C 215.588 60.363 179.2 37.5 137.5 37.5 C 137.5 28.713 135.638 20.35 132.35 12.763 Z  M 260 212.237 C 237.263 256.875 191.013 287.5 137.5 287.5 L 132.35 287.238 C 135.638 279.65 137.5 271.287 137.5 262.5 C 179.2 262.5 215.588 239.638 235.025 205.85 C 242.625 209.625 251.037 211.888 260 212.237 Z  M 23.625 227.063 C 8.712 205.075 0 178.563 0 150 C 0 121.438 8.713 94.925 23.625 72.938 C 28.525 80.013 34.887 85.925 42.213 90.475 C 31.375 107.762 25 128.125 25 150 C 25 171.875 31.375 192.237 42.213 209.525 C 34.888 214.075 28.513 219.988 23.625 227.063 Z " fill="rgb(0,0,0)"/></g></svg>