<?xml version="1.0" standalone="no"?><!-- Generator: Gravit.io --><svg xmlns="http://www.w3.org/2000/svg" xmlns:xlink="http://www.w3.org/1999/xlink" style="isolation:isolate" viewBox="0 0 300 300" width="300" height="300"><defs><clipPath id="_clipPath_eL9OhuQrzz7Uu88g1i5Y0VxMpesKUnn5"><rect x="0" y="0" width="300" height="300"/></clipPath></defs><g clip-path="url(#_clipPath_eL9OhuQrzz7Uu88g1i5Y0VxMpesKUnn5)"><path d=" M 62.5 195.163 C 62.5 185.313 63.263 179.625 74.9 176.938 C 88.325 173.825 100.838 171.113 94.788 159.675 C 76.338 124.863 89.888 106.25 109.363 106.25 C 122.538 106.25 132.788 114.763 132.788 130.45 C 132.788 166.788 112.725 149.838 112.5 200 L 112.5 212.5 L 62.5 212.5 L 62.5 195.163 Z  M 237.5 212.5 L 125 212.5 L 125 200 C 125 182.838 123.625 173.388 141.525 169.25 C 159.438 165.113 169.9 161.488 161.812 146.238 C 137.237 99.825 155.3 75 181.25 75 C 207.712 75 225.337 100.775 200.7 146.238 C 192.375 161.575 203.425 165.213 220.962 169.25 C 238.6 173.325 237.5 182.588 237.5 200 L 237.5 212.5 Z  M 162.5 274.363 L 162.5 237.5 L 137.5 237.5 L 137.5 274.363 C 78.538 268.463 31.513 221.463 25.638 162.5 L 62.5 162.5 L 62.5 137.5 L 25.638 137.5 C 31.513 78.525 78.538 31.513 137.5 25.625 L 137.5 62.5 L 162.5 62.5 L 162.5 25.625 C 221.462 31.513 268.488 78.525 274.362 137.5 L 237.5 137.5 L 237.5 162.5 L 274.362 162.5 C 268.488 221.463 221.462 268.463 162.5 274.363 Z  M 150 0 C 67.163 0 0 67.15 0 150 C 0 232.837 67.163 300 150 300 C 232.837 300 300 232.837 300 150 C 300 67.15 232.837 0 150 0 Z " fill-rule="evenodd" fill="rgb(0,0,0)"/></g></svg>