<?xml version="1.0" standalone="no"?><!-- Generator: Gravit.io --><svg xmlns="http://www.w3.org/2000/svg" xmlns:xlink="http://www.w3.org/1999/xlink" style="isolation:isolate" viewBox="0 0 300 300" width="300" height="300"><defs><clipPath id="_clipPath_HNYcm6UWUKcNanVO96wJ2mVopMXhsgZj"><rect width="300" height="300"/></clipPath></defs><g clip-path="url(#_clipPath_HNYcm6UWUKcNanVO96wJ2mVopMXhsgZj)"><path d=" M 135.471 213.5 C 166.179 205.225 184.104 197.988 170.25 167.475 C 128.121 74.637 159.086 25 203.582 25 C 248.957 25 279.161 76.55 236.904 167.475 C 222.632 198.163 241.586 205.4 271.639 213.5 C 298.243 220.675 300 235.838 300 262.112 L 300 275 L 107.143 275 C 107.143 240.687 104.786 221.775 135.471 213.5 Z  M 0 275 L 83.668 275 C 83.293 172.788 120.482 208.588 120.482 135.913 C 120.482 104.525 102.921 87.5 80.325 87.5 C 46.95 87.5 23.732 124.738 55.329 194.363 C 65.711 217.238 44.282 222.675 21.246 228.875 C 1.296 234.25 0 245.625 0 265.338 L 0 275 Z " fill="rgb(0,0,0)"/></g></svg>